<?xml version="1.0" encoding="UTF-8" standalone="no"?>
<!-- Created with Inkscape (http://www.inkscape.org/) -->

<svg
   xmlns:dc="http://purl.org/dc/elements/1.1/"
   xmlns:cc="http://creativecommons.org/ns#"
   xmlns:rdf="http://www.w3.org/1999/02/22-rdf-syntax-ns#"
   xmlns:svg="http://www.w3.org/2000/svg"
   xmlns="http://www.w3.org/2000/svg"
   xmlns:sodipodi="http://sodipodi.sourceforge.net/DTD/sodipodi-0.dtd"
   xmlns:inkscape="http://www.inkscape.org/namespaces/inkscape"
   width="269.814mm"
   height="79.094955mm"
   viewBox="0 0 269.814 79.094955"
   version="1.1"
   id="svg8"
   inkscape:version="0.92.4 (5da689c313, 2019-01-14)"
   sodipodi:docname="lisboaeng-logo.svg">
  <defs
     id="defs2">
    <style
       id="style4609">
      .st0, .st1 {
        fill: #fff;
      }

      .st1 {
        opacity: 0;
      }
    </style>
    <filter
       style="color-interpolation-filters:sRGB"
       inkscape:label="Drop Shadow"
       id="filter5568">
      <feFlood
         flood-opacity="0.498039"
         flood-color="rgb(255,255,255)"
         result="flood"
         id="feFlood5558" />
      <feComposite
         in="flood"
         in2="SourceGraphic"
         operator="in"
         result="composite1"
         id="feComposite5560" />
      <feGaussianBlur
         in="composite1"
         stdDeviation="1"
         result="blur"
         id="feGaussianBlur5562" />
      <feOffset
         dx="-3"
         dy="2"
         result="offset"
         id="feOffset5564" />
      <feComposite
         in="SourceGraphic"
         in2="offset"
         operator="over"
         result="fbSourceGraphic"
         id="feComposite5566" />
      <feColorMatrix
         result="fbSourceGraphicAlpha"
         in="fbSourceGraphic"
         values="0 0 0 -1 0 0 0 0 -1 0 0 0 0 -1 0 0 0 0 1 0"
         id="feColorMatrix5774" />
      <feFlood
         id="feFlood5776"
         flood-opacity="0.498039"
         flood-color="rgb(255,255,255)"
         result="flood"
         in="fbSourceGraphic" />
      <feComposite
         in2="fbSourceGraphic"
         id="feComposite5778"
         in="flood"
         operator="in"
         result="composite1" />
      <feGaussianBlur
         id="feGaussianBlur5780"
         in="composite1"
         stdDeviation="0.7"
         result="blur" />
      <feOffset
         id="feOffset5782"
         dx="1"
         dy="-3.8"
         result="offset" />
      <feComposite
         in2="offset"
         id="feComposite5784"
         in="fbSourceGraphic"
         operator="over"
         result="composite2" />
    </filter>
    <filter
       style="color-interpolation-filters:sRGB"
       inkscape:label="Drop Shadow"
       id="filter5580">
      <feFlood
         flood-opacity="0.498039"
         flood-color="rgb(255,255,255)"
         result="flood"
         id="feFlood5570" />
      <feComposite
         in="flood"
         in2="SourceGraphic"
         operator="in"
         result="composite1"
         id="feComposite5572" />
      <feGaussianBlur
         in="composite1"
         stdDeviation="1"
         result="blur"
         id="feGaussianBlur5574" />
      <feOffset
         dx="-3"
         dy="2"
         result="offset"
         id="feOffset5576" />
      <feComposite
         in="SourceGraphic"
         in2="offset"
         operator="over"
         result="fbSourceGraphic"
         id="feComposite5578" />
      <feColorMatrix
         result="fbSourceGraphicAlpha"
         in="fbSourceGraphic"
         values="0 0 0 -1 0 0 0 0 -1 0 0 0 0 -1 0 0 0 0 1 0"
         id="feColorMatrix5786" />
      <feFlood
         id="feFlood5788"
         flood-opacity="0.498039"
         flood-color="rgb(255,255,255)"
         result="flood"
         in="fbSourceGraphic" />
      <feComposite
         in2="fbSourceGraphic"
         id="feComposite5790"
         in="flood"
         operator="in"
         result="composite1" />
      <feGaussianBlur
         id="feGaussianBlur5792"
         in="composite1"
         stdDeviation="0.7"
         result="blur" />
      <feOffset
         id="feOffset5794"
         dx="1"
         dy="-3.8"
         result="offset" />
      <feComposite
         in2="offset"
         id="feComposite5796"
         in="fbSourceGraphic"
         operator="over"
         result="composite2" />
    </filter>
  </defs>
  <sodipodi:namedview
     id="base"
     pagecolor="#ffffff"
     bordercolor="#666666"
     borderopacity="1.0"
     inkscape:pageopacity="0.0"
     inkscape:pageshadow="2"
     inkscape:zoom="0.35355339"
     inkscape:cx="202.04223"
     inkscape:cy="429.65861"
     inkscape:document-units="mm"
     inkscape:current-layer="layer1"
     showgrid="true"
     inkscape:window-width="1440"
     inkscape:window-height="829"
     inkscape:window-x="-8"
     inkscape:window-y="-8"
     inkscape:window-maximized="1"
     inkscape:lockguides="true"
     fit-margin-top="0"
     fit-margin-left="0"
     fit-margin-right="0"
     fit-margin-bottom="0">
    <inkscape:grid
       type="xygrid"
       id="grid4750"
       originx="34.473978"
       originy="-190.54252" />
  </sodipodi:namedview>
  <metadata
     id="metadata5">
    <rdf:RDF>
      <cc:Work
         rdf:about="">
        <dc:format>image/svg+xml</dc:format>
        <dc:type
           rdf:resource="http://purl.org/dc/dcmitype/StillImage" />
        <dc:title></dc:title>
      </cc:Work>
    </rdf:RDF>
  </metadata>
  <g
     inkscape:label="Layer 1"
     inkscape:groupmode="layer"
     id="layer1"
     transform="translate(34.473977,-27.362531)">
    <flowRoot
       transform="matrix(0.26458333,0,0,0.26458333,7.9771881,-13.31232)"
       style="font-style:normal;font-weight:normal;font-size:96px;line-height:1.25;font-family:sans-serif;letter-spacing:0px;word-spacing:0px;fill:#000000;fill-opacity:1;stroke:none"
       id="flowRoot4760"
       xml:space="preserve"><flowRegion
         style="font-size:96px"
         id="flowRegion4762"><rect
           style="font-size:96px"
           y="482.51968"
           x="360"
           height="180"
           width="270"
           id="rect4764" /></flowRegion><flowPara
         id="flowPara4766" /></flowRoot>    <g
       id="g1025"
       transform="translate(-466.05666,-316.09095)">
      <g
         id="g1051"
         transform="translate(370.41667,306.91667)">
        <g
           transform="matrix(0.38155263,0,0,0.38155263,100.71349,76.084288)"
           id="logo-logo">
          <g
             style="paint-order:stroke"
             id="g915">
            <g
               transform="scale(1.1687299)"
               id="g913">
              <g
                 style="paint-order:stroke"
                 id="g911">
                <g
                   id="g909">
                  <linearGradient
                     id="SVGID_43_651068"
                     gradientUnits="userSpaceOnUse"
                     x1="0"
                     y1="0"
                     x2="0"
                     y2="177">
                    <stop
                       offset="0%"
                       style="stop-color:rgb(202,232,247);stop-opacity: 1"
                       id="stop902" />
                    <stop
                       offset="100%"
                       style="stop-color:rgb(95,186,231);stop-opacity: 1"
                       id="stop904" />
                  </linearGradient>
                  <path
                     inkscape:connector-curvature="0"
                     style="opacity:1;fill:url(#SVGID_43_651068);fill-rule:nonzero;stroke:none;stroke-width:1;stroke-linecap:butt;stroke-linejoin:miter;stroke-miterlimit:4;stroke-dasharray:none;stroke-dashoffset:0;paint-order:stroke"
                     transform="translate(-88.685,-88.685)"
                     d="m 77.4,167.08 -1.31,7.44 c -0.08491,0.53642 -0.384314,1.01525 -0.829415,1.32644 -0.445102,0.3112 -0.997621,0.428 -1.530585,0.32356 L 72.9,176 c -0.536422,-0.0849 -1.015248,-0.38431 -1.326442,-0.82942 C 71.262364,174.72548 71.145564,174.17296 71.25,173.64 l 1.31,-7.43 c 0.08249,-0.53825 0.380884,-1.0196 0.826276,-1.33288 0.445392,-0.31329 0.999269,-0.43142 1.533724,-0.32712 l 0.83,0.15 c 0.540658,0.0845 1.023086,0.38681 1.334863,0.83652 0.311777,0.44972 0.425669,1.00754 0.315137,1.54348 z m 4,-34.4 -0.83,-0.15 c -0.532964,-0.10444 -1.085483,0.0124 -1.530585,0.32356 -0.445101,0.31119 -0.744508,0.79002 -0.829415,1.32644 l -4,22.89 c -0.104436,0.53296 0.01236,1.08548 0.323558,1.53058 0.311194,0.44511 0.79002,0.74451 1.326442,0.82942 l 0.82,0.15 c 1.093341,0.15827 2.116883,-0.5741 2.32,-1.66 l 4,-22.88 c 0.105295,-0.52561 -0.0048,-1.07148 -0.305619,-1.51517 C 82.393572,133.08113 81.927243,132.77677 81.4,132.68 Z m 20.3,-119.95 0.82,0.14 c 0.53296,0.104436 1.08548,-0.01236 1.53058,-0.323558 0.44511,-0.311194 0.74451,-0.79002 0.82942,-1.326442 L 106.2,3.78 C 106.3043,3.2455449 106.18617,2.6916677 105.87288,2.2462758 105.5596,1.8008839 105.07825,1.5024891 104.54,1.42 L 103.72,1.28 C 103.18704,1.175564 102.63452,1.292364 102.18942,1.6035577 101.74431,1.9147517 101.44491,2.3935783 101.36,2.93 L 100,10.36 c -0.08951,0.539804 0.0394,1.09304 0.35835,1.53766 0.31893,0.444619 0.80164,0.744087 1.34165,0.83234 z m -5.65,32 0.82,0.14 c 0.532964,0.104436 1.085483,-0.01236 1.530585,-0.323558 C 98.845686,44.235248 99.145093,43.756422 99.23,43.22 l 4,-22.88 c 0.0991,-0.52407 -0.0151,-1.066033 -0.31747,-1.505439 C 102.61021,18.395155 102.14489,18.09471 101.62,18 l -0.83,-0.14 c -0.53296,-0.104436 -1.085483,0.01236 -1.530585,0.323558 C 98.814314,18.494752 98.514907,18.973578 98.43,19.51 l -4,22.89 c -0.107928,0.530017 0.0034,1.08115 0.308654,1.527692 C 95.043885,44.374235 95.516969,44.678107 96.05,44.77 Z M 62.75,161.31 62,161 c -0.505986,-0.19541 -1.069642,-0.17693 -1.56174,0.0512 -0.492099,0.22814 -0.870432,0.64637 -1.04826,1.1588 l -2.58,7.1 c -0.222582,0.51253 -0.220605,1.0948 0.0055,1.6058 0.22601,0.51101 0.655532,0.90414 1.1845,1.0842 l 0.79,0.29 c 0.514082,0.18566 1.08175,0.15283 1.571003,-0.0908 C 60.850256,171.95546 61.218461,171.52216 61.38,171 L 64,163.93 c 0.182415,-0.51316 0.153134,-1.07782 -0.08138,-1.56936 C 63.684106,161.8691 63.263635,161.49108 62.75,161.31 Z m 11.13,-30.57 -0.79,-0.29 c -0.507288,-0.19497 -1.072076,-0.1751 -1.564409,0.055 -0.492334,0.23014 -0.869816,0.65072 -1.045591,1.16497 l -8,21.84 c -0.194968,0.50729 -0.175099,1.07208 0.05503,1.56441 0.230133,0.49233 0.650712,0.86982 1.164966,1.04559 l 0.78,0.29 c 1.060221,0.38281 2.23061,-0.16218 2.62,-1.22 l 7.94,-21.84 c 0.197801,-0.49953 0.186304,-1.05764 -0.0319,-1.5486 C 74.789894,131.31044 74.383333,130.92792 73.88,130.74 Z m 40.82,-114.61 0.78,0.29 c 0.50848,0.198193 1.07586,0.179995 1.57059,-0.05038 0.49473,-0.23037 0.87383,-0.652902 1.04941,-1.169624 l 2.58,-7.09 c 0.38281,-1.0602205 -0.16218,-2.2306098 -1.22,-2.62 L 118.67,5.21 C 118.16271,5.0150325 117.59792,5.034901 117.10559,5.2650341 116.61326,5.4951671 116.23577,5.9157463 116.06,6.43 l -2.58,7.09 c -0.19497,0.507288 -0.1751,1.072076 0.055,1.564409 0.23014,0.492334 0.65072,0.869816 1.16497,1.045591 z m -11.13,30.58 0.79,0.29 c 0.51177,0.190101 1.07822,0.168218 1.5738,-0.0608 0.49557,-0.229015 0.87933,-0.646244 1.0662,-1.1592 l 8,-21.84 c 0.19497,-0.507288 0.1751,-1.072076 -0.055,-1.564409 -0.23017,-0.492334 -0.65075,-0.869816 -1.165,-1.045591 l -0.79,-0.29 c -0.50729,-0.194968 -1.07208,-0.175099 -1.56441,0.05503 -0.49233,0.230133 -0.86982,0.650712 -1.04559,1.164966 l -8,21.84 c -0.19634,0.503392 -0.18064,1.064807 0.0435,1.556444 0.22416,0.491636 0.6377,0.871658 1.14649,1.053556 z m -53,109 -0.73,-0.42 c -0.46558,-0.30242 -1.035914,-0.3977 -1.574512,-0.26305 C 47.726889,155.1616 47.268492,155.51407 47,156 l -3.78,6.53 c -0.282527,0.4666 -0.36222,1.02835 -0.220616,1.55511 0.141604,0.52677 0.492217,0.97284 0.970616,1.23489 l 0.72,0.42 c 0.466597,0.28253 1.028346,0.36222 1.555112,0.22062 0.526766,-0.14161 0.972841,-0.49222 1.234888,-0.97062 l 3.77,-6.54 c 0.272777,-0.45828 0.351221,-1.00653 0.217899,-1.52291 C 51.334578,156.4107 51.000536,155.96895 50.54,155.7 Z m 16.27,-28.18 -0.73,-0.42 c -0.465756,-0.27923 -1.025038,-0.35707 -1.54934,-0.21562 -0.524303,0.14145 -0.968546,0.49002 -1.23066,0.96562 L 51.68,148 c -0.283316,0.46536 -0.364522,1.02616 -0.224847,1.55277 0.139674,0.52661 0.48814,0.97345 0.964847,1.23723 l 0.73,0.42 c 0.465756,0.27923 1.025038,0.35707 1.54934,0.21562 0.524303,-0.14145 0.968546,-0.49002 1.23066,-0.96562 l 11.62,-20.12 c 0.293309,-0.46779 0.380182,-1.03602 0.24004,-1.57008 C 67.649897,128.23586 67.295207,127.7835 66.81,127.52 Z m 60.1,-105.77 0.72,0.42 c 0.97809,0.559128 2.22409,0.224182 2.79,-0.75 l 3.77,-6.54 c 0.28003,-0.464524 0.35938,-1.022863 0.21986,-1.547012 C 134.30033,12.818839 133.95391,12.373836 133.48,12.11 l -0.73,-0.42 c -0.46452,-0.280029 -1.02286,-0.359378 -1.54701,-0.219856 -0.52415,0.139522 -0.96915,0.485948 -1.23299,0.959856 L 126.16,19 c -0.26948,0.463157 -0.34184,1.015081 -0.20085,1.532049 0.14099,0.516969 0.48354,0.955738 0.95085,1.217951 z m -16.3,28.17 0.72,0.41 c 0.46536,0.283316 1.02616,0.364522 1.55277,0.224847 0.52661,-0.139674 0.97345,-0.48814 1.23723,-0.964847 l 11.62,-20.13 c 0.27923,-0.465756 0.35707,-1.025038 0.21562,-1.54934 C 125.84417,27.396357 125.4956,26.952114 125.02,26.69 l -0.72,-0.42 c -0.97548,-0.560825 -2.22069,-0.230556 -2.79,0.74 l -11.62,20.13 c -0.28253,0.466597 -0.36222,1.028346 -0.22062,1.555112 0.14161,0.526766 0.49222,0.972841 0.97062,1.234888 z m -71.15,98.12 -0.64,-0.54 c -0.865376,-0.72292 -2.152137,-0.61122 -2.88,0.25 l -4.85,5.79 c -0.357186,0.40954 -0.532349,0.94679 -0.485192,1.48815 0.04716,0.54137 0.312575,1.04024 0.735192,1.38185 L 32,157 c 0.865376,0.72292 2.152137,0.61122 2.88,-0.25 l 4.85,-5.79 c 0.371414,-0.41006 0.556375,-0.95565 0.5109,-1.50703 -0.04548,-0.55139 -0.317323,-1.0593 -0.7509,-1.40297 z m 20.91,-24.92 -0.64,-0.54 c -0.409536,-0.35719 -0.946786,-0.53235 -1.488153,-0.48519 -0.541366,0.0472 -1.040238,0.31257 -1.381847,0.73519 L 42,140.64 c -0.357186,0.40954 -0.532349,0.94679 -0.485192,1.48815 0.04716,0.54137 0.312575,1.04024 0.735192,1.38185 l 0.64,0.54 c 0.865376,0.72292 2.152137,0.61122 2.88,-0.25 L 60.65,126 c 0.357186,-0.40954 0.532349,-0.94679 0.485192,-1.48815 C 61.088034,123.97048 60.822617,123.47161 60.4,123.13 Z M 138,29.4 l 0.64,0.53 c 0.40954,0.357186 0.94679,0.532349 1.48815,0.485192 0.54137,-0.04716 1.04024,-0.312575 1.38185,-0.735192 l 4.85,-5.78 c 0.35719,-0.409536 0.53235,-0.946786 0.48519,-1.488153 C 146.79803,21.870481 146.53262,21.371609 146.11,21.03 l -0.64,-0.54 c -0.40954,-0.357186 -0.94679,-0.532349 -1.48815,-0.485192 -0.54137,0.04716 -1.04024,0.312575 -1.38185,0.735192 l -4.85,5.78 c -0.36043,0.410017 -0.53759,0.949549 -0.49038,1.493418 0.0472,0.54387 0.31469,1.044804 0.74038,1.386582 z m -21,24.92 0.64,0.54 c 0.86538,0.722923 2.15214,0.611225 2.88,-0.25 l 14.93,-17.8 c 0.36043,-0.410017 0.53759,-0.949549 0.49038,-1.493418 C 135.89317,34.772712 135.62569,34.271778 135.2,33.93 l -0.64,-0.53 c -0.40954,-0.357186 -0.94679,-0.532349 -1.48815,-0.485192 -0.54137,0.04716 -1.04024,0.312575 -1.38185,0.735192 l -14.94,17.8 c -0.35719,0.409536 -0.53235,0.946786 -0.48519,1.488153 0.0472,0.541366 0.31257,1.040238 0.73519,1.381847 z M 29.93,138.6 29.4,138 c -0.341778,-0.42569 -0.842712,-0.69317 -1.386582,-0.74038 -0.543869,-0.0472 -1.083401,0.12995 -1.493418,0.49038 l -5.78,4.85 c -0.422617,0.34161 -0.688034,0.84048 -0.735192,1.38185 -0.04716,0.54136 0.128006,1.07861 0.485192,1.48815 l 0.54,0.64 c 0.341609,0.42262 0.840481,0.68803 1.381847,0.73519 0.541367,0.0472 1.078617,-0.128 1.488153,-0.48519 l 5.78,-4.85 c 0.435019,-0.34218 0.70879,-0.84934 0.756165,-1.40078 C 30.48354,139.55778 30.300282,139.01137 29.93,138.6 Z m 24.93,-20.92 -0.54,-0.64 c -0.341609,-0.42262 -0.840481,-0.68803 -1.381847,-0.73519 -0.541367,-0.0472 -1.078617,0.128 -1.488153,0.48519 l -17.8,14.94 c -0.424077,0.34015 -0.691413,0.83828 -0.740462,1.3797 -0.04905,0.54142 0.124418,1.07948 0.480462,1.4903 l 0.54,0.64 c 0.341778,0.42569 0.842712,0.69317 1.386582,0.74038 0.543869,0.0472 1.083401,-0.12995 1.493418,-0.49038 l 17.8,-14.93 c 0.861225,-0.72786 0.972923,-2.01462 0.25,-2.88 z m 92.65,-78.83 0.54,0.64 c 0.34161,0.422617 0.84048,0.688034 1.38185,0.735192 0.54136,0.04716 1.07861,-0.128006 1.48815,-0.485192 l 5.79,-4.85 c 0.42257,-0.344194 0.69069,-0.842492 0.74511,-1.384781 C 157.50953,32.96293 157.34576,32.421294 157,32 l -0.54,-0.64 c -0.34161,-0.422617 -0.84048,-0.688034 -1.38185,-0.735192 -0.54136,-0.04716 -1.07861,0.128006 -1.48815,0.485192 L 147.76,36 c -0.84204,0.725207 -0.95292,1.989271 -0.25,2.85 z m -24.92,20.91 0.54,0.64 c 0.34161,0.422617 0.84048,0.688034 1.38185,0.735192 0.54136,0.04716 1.07861,-0.128006 1.48815,-0.485192 l 17.8,-14.93 c 0.86122,-0.727863 0.97292,-2.014624 0.25,-2.88 l -0.54,-0.64 c -0.34161,-0.422617 -0.84048,-0.688034 -1.38185,-0.735192 -0.54136,-0.04716 -1.07861,0.128006 -1.48815,0.485192 l -17.8,14.94 c -0.42262,0.341609 -0.68803,0.840481 -0.73519,1.381847 -0.0472,0.541367 0.128,1.078617 0.48519,1.488153 z m -100.42,67.87 -0.42,-0.72 c -0.262047,-0.4784 -0.708122,-0.82901 -1.234888,-0.97062 -0.526766,-0.1416 -1.088515,-0.0619 -1.555112,0.22062 l -6.54,3.78 c -0.473908,0.26384 -0.820334,0.70884 -0.959856,1.23299 -0.139522,0.52415 -0.06017,1.08249 0.219856,1.54701 l 0.42,0.73 c 0.263836,0.47391 0.708839,0.82033 1.232988,0.95986 0.524149,0.13952 1.082488,0.0602 1.547012,-0.21986 l 6.54,-3.77 c 0.974182,-0.56591 1.309128,-1.81191 0.75,-2.79 z m 28.17,-16.27 -0.41,-0.72 c -0.262047,-0.4784 -0.708122,-0.82901 -1.234888,-0.97062 -0.526766,-0.1416 -1.088515,-0.0619 -1.555112,0.22062 L 27,121.51 c -0.970556,0.56931 -1.300825,1.81452 -0.74,2.79 l 0.42,0.72 c 0.262114,0.4756 0.706357,0.82417 1.23066,0.96562 0.524302,0.14145 1.083584,0.0636 1.54934,-0.21562 L 49.6,114.15 c 0.476707,-0.26378 0.825173,-0.71062 0.964847,-1.23723 0.139675,-0.52661 0.05847,-1.08741 -0.224847,-1.55277 z m 104.94,-61.55 0.42,0.73 c 0.26384,0.473908 0.70884,0.820334 1.23299,0.959856 0.52415,0.139522 1.08249,0.06017 1.54701,-0.219856 L 165,47.51 c 0.4784,-0.262047 0.82901,-0.708122 0.97062,-1.234888 0.1416,-0.526766 0.0619,-1.088515 -0.22062,-1.555112 L 165.33,44 c -0.26205,-0.478399 -0.70812,-0.829012 -1.23489,-0.970616 C 163.56835,42.88778 163.0066,42.967473 162.54,43.25 L 156,47 c -0.47899,0.267079 -0.82729,0.719131 -0.96342,1.250388 -0.13612,0.531256 -0.0481,1.095103 0.24342,1.559612 z m -28.18,16.27 0.42,0.73 c 0.26378,0.476707 0.71062,0.825173 1.23723,0.964847 0.52661,0.139675 1.08741,0.05847 1.55277,-0.224847 l 20.12,-11.62 c 0.4756,-0.262114 0.82417,-0.706357 0.96562,-1.23066 0.14145,-0.524302 0.0636,-1.083584 -0.21562,-1.54934 l -0.42,-0.73 c -0.26378,-0.476707 -0.71062,-0.825173 -1.23723,-0.964847 C 148.99616,51.315478 148.43536,51.396684 147.97,51.68 L 127.85,63.3 c -0.4756,0.262114 -0.82417,0.706357 -0.96562,1.23066 -0.14145,0.524302 -0.0636,1.083584 0.21562,1.54934 z m -110.68,49.4 -0.29,-0.78 c -0.175775,-0.51425 -0.553257,-0.93483 -1.045591,-1.16497 -0.492333,-0.23013 -1.057121,-0.25 -1.564409,-0.055 l -7.09,2.58 C 5.9157463,116.2358 5.4951671,116.61329 5.2650341,117.10562 5.034901,117.59792 5.0150325,118.16271 5.21,118.67 l 0.28,0.79 c 0.3893902,1.05782 1.5597795,1.60281 2.62,1.22 l 7.09,-2.58 c 0.516722,-0.17558 0.939254,-0.55468 1.169624,-1.04941 0.230371,-0.49473 0.248569,-1.06211 0.05038,-1.57059 z M 47,104.36 46.71,103.57 c -0.175775,-0.51425 -0.553257,-0.93483 -1.045591,-1.16497 -0.492333,-0.23013 -1.057121,-0.25 -1.564409,-0.055 l -21.84,8 c -0.50945,0.16837 -0.929883,0.53438 -1.166823,1.01578 -0.23694,0.4814 -0.270514,1.03782 -0.09318,1.54422 l 0.29,0.79 c 0.175775,0.51425 0.553257,0.93483 1.045591,1.16497 0.492333,0.23013 1.057121,0.25 1.564409,0.055 l 21.84,-8 c 1.042376,-0.37309 1.600191,-1.50643 1.26,-2.56 z M 161,62 l 0.28,0.79 c 0.17721,0.519881 0.56043,0.944002 1.05973,1.172852 0.49931,0.228849 1.07076,0.242282 1.58027,0.03715 l 7.1,-2.59 c 0.51425,-0.175775 0.93483,-0.553257 1.16497,-1.045591 0.23013,-0.492333 0.25,-1.057121 0.055,-1.564409 L 172,58 c -0.17783,-0.512431 -0.55616,-0.930658 -1.04826,-1.158795 -0.4921,-0.228138 -1.05575,-0.246619 -1.56174,-0.05121 l -7.1,2.58 c -0.53198,0.160512 -0.9732,0.535108 -1.2179,1.033994 C 160.8274,60.902881 160.80128,61.481082 161,62 Z m -30.55,11.09 0.29,0.79 c 0.17577,0.514254 0.55326,0.934833 1.04559,1.164966 0.49233,0.230133 1.05712,0.250002 1.56441,0.05503 l 21.84,-7.95 c 1.05782,-0.38939 1.60281,-1.559779 1.22,-2.62 l -0.29,-0.78 C 155.94423,63.235742 155.56674,62.815163 155.07441,62.58503 154.58208,62.354901 154.01729,62.335032 153.51,62.53 l -21.84,8 c -0.50213,0.176521 -0.91318,0.545911 -1.14216,1.026391 -0.22898,0.480481 -0.25699,1.032414 -0.0778,1.533609 z M 12.87,102.52 12.73,101.7 c -0.08825,-0.54001 -0.387721,-1.02272 -0.83234,-1.34165 C 11.45304,100.03943 10.899804,99.910494 10.36,100 l -7.43,1.32 c -0.5364217,0.0849 -1.0152483,0.38431 -1.3264423,0.82942 C 1.2923636,102.59452 1.175564,103.14704 1.28,103.68 l 0.14,0.82 c 0.082489,0.53825 0.3808839,1.0196 0.8262758,1.33288 C 2.6916677,106.14617 3.2455449,106.2643 3.78,106.16 l 7.44,-1.32 c 0.528091,-0.0856 0.999889,-0.37914 1.309949,-0.8151 0.31006,-0.43596 0.432535,-0.97798 0.340051,-1.5049 z m 32,-5.65 -0.14,-0.82 C 44.647511,95.511747 44.349116,95.030399 43.903724,94.717115 43.458332,94.403831 42.904455,94.285699 42.37,94.39 l -22.89,4 c -0.536422,0.08491 -1.015248,0.384314 -1.326442,0.829415 C 17.842364,99.664517 17.725564,100.21704 17.83,100.75 l 0.14,0.83 c 0.0847,0.53853 0.385569,1.01915 0.832974,1.33064 0.447404,0.31148 1.002571,0.42683 1.537026,0.31936 l 22.88,-4 c 0.543738,-0.07514 1.032693,-0.37046 1.352275,-0.81674 C 44.891856,97.966981 45.013971,97.408969 44.91,96.87 Z m 119.66,-22 0.15,0.83 c 0.0849,0.536422 0.38431,1.015248 0.82942,1.326442 0.4451,0.311194 0.99762,0.427994 1.53058,0.323558 l 7.44,-1.31 c 0.53642,-0.08491 1.01525,-0.384314 1.32644,-0.829415 0.3112,-0.445102 0.428,-0.997621 0.32356,-1.530585 L 176,72.9 c -0.0849,-0.536422 -0.38431,-1.015248 -0.82942,-1.326442 C 174.72548,71.262364 174.17296,71.145564 173.64,71.25 l -7.43,1.31 c -0.53459,0.08731 -1.0109,0.387721 -1.32001,0.832536 -0.30911,0.444814 -0.42457,0.995985 -0.31999,1.527464 z m -32,5.65 0.15,0.83 c 0.0735,0.537238 0.36202,1.0216 0.79941,1.3421 0.43739,0.3205 0.98617,0.449666 1.52059,0.3579 l 22.88,-4 c 1.10841,-0.20301 1.84801,-1.258946 1.66,-2.37 l -0.15,-0.82 c -0.0849,-0.536422 -0.38431,-1.015248 -0.82942,-1.326442 C 158.11548,74.222364 157.56296,74.105564 157.03,74.21 l -22.89,4 c -0.52908,0.09442 -0.9979,0.397813 -1.30077,0.841782 C 132.53635,79.495751 132.4249,80.042935 132.53,80.57 Z M 11.63,89.14 V 88.3 c 0,-1.104569 -0.895431,-2 -2,-2 H 2 c -1.1045695,0 -2,0.895431 -2,2 v 0.84 c 0,1.104569 0.8954305,2 2,2 h 7.59 c 0.537329,0.01075 1.056374,-0.19521 1.440143,-0.571454 C 11.413912,90.192302 11.630107,89.677437 11.63,89.14 Z m 32.53,0 V 88.3 c 0,-1.104569 -0.895431,-2 -2,-2 H 18.89 c -1.104569,0 -2,0.895431 -2,2 v 0.84 c 0,1.104569 0.895431,2 2,2 h 23.24 c 0.535612,0.008 1.052061,-0.199126 1.433647,-0.575073 C 43.945233,90.18898 44.16006,89.675672 44.16,89.14 Z M 165.82,88.3 v 0.84 c 0,1.104569 0.89543,2 2,2 h 7.55 c 1.10457,0 2,-0.895431 2,-2 V 88.3 c 0,-1.104569 -0.89543,-2 -2,-2 h -7.55 c -1.10457,0 -2,0.895431 -2,2 z m -32.54,0 v 0.84 c 0,1.104569 0.89543,2 2,2 h 23.24 c 1.10457,0 2,-0.895431 2,-2 V 88.3 c 0,-1.104569 -0.89543,-2 -2,-2 h -23.2 c -0.53733,-0.01075 -1.05637,0.19521 -1.44014,0.571454 C 133.49609,87.247698 133.27989,87.762563 133.28,88.3 Z M 12.73,75.75 12.87,74.92 C 12.974436,74.387036 12.857636,73.834517 12.546442,73.389415 12.235248,72.944314 11.756422,72.644907 11.22,72.56 L 3.78,71.25 C 3.2470361,71.145564 2.6945171,71.262364 2.2494153,71.573558 1.8043135,71.884752 1.5049065,72.363578 1.42,72.9 L 1.28,73.73 C 1.175564,74.262964 1.292364,74.815483 1.6035577,75.260585 1.9147517,75.705686 2.3935783,76.005093 2.93,76.09 l 7.43,1.31 c 0.534455,0.107474 1.089622,-0.0079 1.537026,-0.319362 C 12.344431,76.769154 12.645297,76.288534 12.73,75.75 Z m 32,5.65 0.14,-0.83 C 44.974436,80.037036 44.857636,79.484517 44.546442,79.039415 44.235248,78.594314 43.756422,78.294907 43.22,78.21 l -22.88,-4 C 19.814468,74.11105 19.271198,74.22669 18.831518,74.531081 18.391837,74.835475 18.092372,75.303272 18,75.83 l -0.14,0.82 c -0.101275,0.532955 0.0183,1.084187 0.33129,1.527281 C 18.504284,78.620374 18.983847,78.917313 19.52,79 l 22.89,4 c 0.525606,0.105295 1.071481,-0.0048 1.515173,-0.305619 C 44.368866,82.393572 44.673233,81.927243 44.77,81.4 Z m 120,20.3 -0.15,0.82 c -0.1043,0.53446 0.0138,1.08833 0.32712,1.53372 0.31328,0.4454 0.79463,0.74379 1.33288,0.82628 l 7.43,1.32 c 0.53446,0.1043 1.08833,-0.0138 1.53372,-0.32712 0.4454,-0.31328 0.74379,-0.79463 0.82628,-1.33288 l 0.15,-0.82 c 0.10444,-0.53296 -0.0124,-1.08548 -0.32356,-1.53058 -0.31119,-0.44511 -0.79002,-0.74451 -1.32644,-0.82942 L 167.08,100 c -0.54049,-0.103886 -1.0999,0.0195 -1.54648,0.34124 -0.44658,0.32169 -0.74086,0.8132 -0.81352,1.35876 z m -32,-5.65 -0.15,0.82 c -0.10444,0.532964 0.0124,1.085483 0.32356,1.530585 0.31119,0.445101 0.79002,0.744508 1.32644,0.829415 l 22.89,4 c 0.53296,0.10444 1.08548,-0.0124 1.53058,-0.32356 0.44511,-0.31119 0.74451,-0.79002 0.82942,-1.32644 l 0.15,-0.83 c 0.1043,-0.53446 -0.0138,-1.088332 -0.32712,-1.533724 C 158.9896,98.770884 158.50825,98.472489 157.97,98.39 l -22.88,-4 c -0.54184,-0.11974 -1.10907,-0.009 -1.56607,0.305798 -0.45699,0.314776 -0.76267,0.805271 -0.84393,1.354202 z M 16.13,62.75 16.42,61.96 C 16.614968,61.452712 16.595099,60.887924 16.36497,60.395591 16.134833,59.903257 15.714254,59.525775 15.2,59.35 L 8.11,56.77 C 7.6002151,56.572235 7.0316879,56.591817 6.536718,56.824188 6.0417481,57.056559 5.6635021,57.481455 5.49,58 L 5.21,58.79 C 5.0150325,59.297288 5.034901,59.862076 5.2650341,60.354409 5.4951671,60.846743 5.9157463,61.224225 6.43,61.4 l 7.09,2.6 c 0.51122,0.193693 1.079446,0.169678 1.572501,-0.06646 C 15.585555,63.697404 15.960457,63.269729 16.13,62.75 Z M 46.71,73.88 47,73.09 C 47.194968,72.582712 47.175099,72.017924 46.94497,71.525591 46.714833,71.033257 46.294254,70.655775 45.78,70.48 l -21.84,-8 C 23.432712,62.285032 22.867924,62.304901 22.375591,62.535034 21.883257,62.765167 21.505775,63.185746 21.33,63.7 l -0.29,0.78 c -0.382813,1.060221 0.162177,2.23061 1.22,2.62 l 21.84,7.99 c 0.505986,0.195414 1.069642,0.176933 1.56174,-0.05121 C 46.153839,74.810658 46.532172,74.392431 46.71,73.88 Z m 114.6,40.82 -0.28,0.78 c -0.19863,0.50717 -0.18182,1.07342 0.0465,1.56791 0.22838,0.49449 0.64855,0.87445 1.16345,1.05209 l 7.1,2.58 c 0.50729,0.19497 1.07208,0.1751 1.56441,-0.055 0.49233,-0.23014 0.86982,-0.65072 1.04559,-1.16497 l 0.29,-0.79 c 0.19497,-0.50729 0.1751,-1.07208 -0.055,-1.56441 -0.23014,-0.49233 -0.65072,-0.86982 -1.16497,-1.04559 l -7.09,-2.58 c -0.50848,-0.19819 -1.07586,-0.17999 -1.57059,0.0504 -0.49473,0.23037 -0.87383,0.6529 -1.04941,1.16962 z m -30.57,-11.13 -0.29,0.79 c -0.19497,0.50729 -0.1751,1.07208 0.055,1.56441 0.23014,0.49233 0.65072,0.86982 1.16497,1.04559 l 21.84,8 c 0.50729,0.19497 1.07208,0.1751 1.56441,-0.055 0.49233,-0.23014 0.86982,-0.65072 1.04559,-1.16497 l 0.29,-0.79 c 0.19497,-0.50729 0.1751,-1.07208 -0.055,-1.56441 -0.23014,-0.49233 -0.65072,-0.86982 -1.16497,-1.04559 l -21.84,-8 c -0.50729,-0.19497 -1.07208,-0.1751 -1.56441,0.055 -0.49233,0.23014 -0.86982,0.65072 -1.04559,1.16497 z m -109,-53 0.42,-0.73 c 0.300081,-0.46934 0.390816,-1.042569 0.250353,-1.581641 C 22.269891,47.719286 21.91096,47.263223 21.42,47 L 14.88,43.22 C 14.410539,42.943095 13.848402,42.869783 13.323625,43.017023 12.798848,43.164262 12.356895,43.519297 12.1,44 l -0.42,0.72 c -0.283316,0.465361 -0.364522,1.026162 -0.224847,1.552773 0.139674,0.526612 0.48814,0.97345 0.964847,1.237227 L 19,51.28 c 0.461936,0.270293 1.012933,0.344166 1.529753,0.205094 C 21.046572,51.346023 21.48609,51.005612 21.75,50.54 Z m 28.19,16.24 0.41,-0.73 c 0.280029,-0.464524 0.359378,-1.022863 0.219856,-1.547012 C 50.420334,64.008839 50.073908,63.563836 49.6,63.3 L 29.47,51.68 C 29.005476,51.399971 28.447137,51.320622 27.922988,51.460144 27.398839,51.599666 26.953836,51.946092 26.69,52.42 l -0.42,0.73 c -0.280832,0.463293 -0.361699,1.020694 -0.224102,1.544692 C 26.183494,55.21869 26.527782,55.664451 27,55.93 l 20.14,11.62 c 0.465361,0.283316 1.026162,0.364522 1.552773,0.224847 C 49.219385,67.635173 49.666223,67.286707 49.93,66.81 Z m 105.77,60.1 -0.42,0.72 c -0.28253,0.4666 -0.36222,1.02835 -0.22062,1.55511 0.14161,0.52677 0.49222,0.97284 0.97062,1.23489 l 6.53,3.77 c 0.46536,0.28332 1.02616,0.36452 1.55277,0.22485 0.52661,-0.13968 0.97345,-0.48814 1.23723,-0.96485 l 0.42,-0.73 c 0.27923,-0.46576 0.35707,-1.02504 0.21562,-1.54934 -0.14145,-0.5243 -0.49002,-0.96855 -0.96562,-1.23066 l -6.54,-3.78 c -0.46576,-0.27923 -1.02504,-0.35707 -1.54934,-0.21562 -0.5243,0.14145 -0.96855,0.49002 -1.23066,0.96562 z m -28.18,-16.27 -0.42,0.72 c -0.28253,0.4666 -0.36222,1.02835 -0.22062,1.55511 0.14161,0.52677 0.49222,0.97284 0.97062,1.23489 L 148,125.77 c 0.4666,0.28253 1.02835,0.36222 1.55511,0.22062 0.52677,-0.14161 0.97284,-0.49222 1.23489,-0.97062 l 0.42,-0.72 c 0.28253,-0.4666 0.36222,-1.02835 0.22062,-1.55511 -0.14161,-0.52677 -0.49222,-0.97284 -0.97062,-1.23489 l -20.12,-11.62 c -0.46904,-0.29254 -1.03824,-0.3779 -1.57245,-0.23582 -0.53422,0.14208 -0.98581,0.49893 -1.24755,0.98582 z M 29.4,39.49 29.93,38.85 c 0.350763,-0.408528 0.521982,-0.941234 0.47493,-1.477625 C 30.357878,36.835983 30.096531,36.341222 29.68,36 L 23.9,31.12 C 23.490464,30.762814 22.953214,30.587651 22.411847,30.634808 21.870481,30.681966 21.371609,30.947383 21.03,31.37 l -0.54,0.64 c -0.360429,0.410017 -0.537589,0.949549 -0.490378,1.493418 0.04721,0.54387 0.314689,1.044804 0.740378,1.386582 l 5.78,4.85 c 0.865376,0.722923 2.152137,0.611225 2.88,-0.25 z m 24.92,20.91 0.54,-0.64 c 0.357186,-0.409536 0.532349,-0.946786 0.485192,-1.488153 C 55.298034,57.730481 55.032617,57.231609 54.61,56.89 L 36.81,42 c -0.865376,-0.722923 -2.152137,-0.611225 -2.88,0.25 l -0.53,0.64 c -0.360429,0.410017 -0.537589,0.949549 -0.490378,1.493418 0.04721,0.54387 0.314689,1.044804 0.740378,1.386582 l 17.8,14.93 c 0.41595,0.351549 0.957275,0.518269 1.498935,0.461649 C 53.490596,61.10503 53.985741,60.829968 54.32,60.4 Z m 93.73,77.6 -0.54,0.64 c -0.35719,0.40954 -0.53235,0.94679 -0.48519,1.48815 0.0472,0.54137 0.31257,1.04024 0.73519,1.38185 l 5.79,4.85 c 0.40954,0.35719 0.94679,0.53235 1.48815,0.48519 0.54137,-0.0472 1.04024,-0.31257 1.38185,-0.73519 l 0.54,-0.64 c 0.35719,-0.40954 0.53235,-0.94679 0.48519,-1.48815 -0.0472,-0.54137 -0.31257,-1.04024 -0.73519,-1.38185 l -5.79,-4.85 c -0.40954,-0.35719 -0.94679,-0.53235 -1.48815,-0.48519 -0.54137,0.0472 -1.04024,0.31257 -1.38185,0.73519 z m -24.92,-21 -0.54,0.64 c -0.36043,0.41002 -0.53759,0.94955 -0.49038,1.49342 0.0472,0.54387 0.31469,1.0448 0.74038,1.38658 l 17.8,14.93 c 0.40954,0.35719 0.94679,0.53235 1.48815,0.48519 0.54137,-0.0472 1.04024,-0.31257 1.38185,-0.73519 l 0.54,-0.64 c 0.35719,-0.40954 0.53235,-0.94679 0.48519,-1.48815 -0.0472,-0.54137 -0.31257,-1.04024 -0.73519,-1.38185 L 126,116.79 c -0.40437,-0.36182 -0.93841,-0.54381 -1.47958,-0.50422 -0.54117,0.0396 -1.04302,0.29739 -1.39042,0.71422 z M 38.85,29.93 39.49,29.4 c 0.861225,-0.727863 0.972923,-2.014624 0.25,-2.88 L 34.89,20.74 C 34.54807,20.311221 34.045068,20.041663 33.498685,19.994398 32.952303,19.947133 32.410483,20.126308 32,20.49 l -0.64,0.54 c -0.422617,0.341609 -0.688034,0.840481 -0.735192,1.381847 C 30.577651,22.953214 30.752814,23.490464 31.11,23.9 L 36,29.68 c 0.341222,0.416531 0.835983,0.677878 1.372375,0.72493 C 37.908766,30.45198 38.441472,30.280763 38.85,29.93 Z m 20.91,24.93 0.64,-0.54 c 0.422617,-0.341609 0.688034,-0.840481 0.735192,-1.381847 C 61.182349,52.396786 61.007186,51.859536 60.65,51.45 L 45.72,33.65 C 45.379689,33.222855 44.879504,32.953455 44.335579,32.90435 43.791655,32.855246 43.251309,33.030709 42.84,33.39 l -0.64,0.54 c -0.845934,0.742338 -0.935207,2.02786 -0.2,2.88 l 14.94,17.8 c 0.340521,0.407541 0.829151,0.662913 1.358155,0.70981 0.529004,0.0469 1.054939,-0.11853 1.461845,-0.45981 z m 78.84,92.65 -0.64,0.54 c -0.42262,0.34161 -0.68803,0.84048 -0.73519,1.38185 -0.0472,0.54136 0.128,1.07861 0.48519,1.48815 l 4.85,5.79 c 0.34161,0.42262 0.84048,0.68803 1.38185,0.73519 0.54136,0.0472 1.07861,-0.128 1.48815,-0.48519 l 0.64,-0.54 c 0.42262,-0.34161 0.68803,-0.84048 0.73519,-1.38185 0.0472,-0.54136 -0.128,-1.07861 -0.48519,-1.48815 l -4.85,-5.79 c -0.34161,-0.42262 -0.84048,-0.68803 -1.38185,-0.73519 -0.54136,-0.0472 -1.07861,0.128 -1.48815,0.48519 z m -20.92,-24.92 -0.64,0.54 c -0.42262,0.34161 -0.68803,0.84048 -0.73519,1.38185 -0.0472,0.54136 0.128,1.07861 0.48519,1.48815 l 14.94,17.8 c 0.34161,0.42262 0.84048,0.68803 1.38185,0.73519 0.54136,0.0472 1.07861,-0.128 1.48815,-0.48519 l 0.64,-0.54 c 0.42262,-0.34161 0.68803,-0.84048 0.73519,-1.38185 0.0472,-0.54136 -0.128,-1.07861 -0.48519,-1.48815 l -14.93,-17.8 c -0.34178,-0.42569 -0.84271,-0.69317 -1.38658,-0.74038 -0.54387,-0.0472 -1.0834,0.12995 -1.49342,0.49038 z M 49.81,22.17 50.54,21.75 c 0.465612,-0.26391 0.806023,-0.703428 0.945094,-1.220247 C 51.624166,20.012933 51.550293,19.461936 51.28,19 L 47.51,12.46 C 47.246223,11.983293 46.799385,11.634827 46.272773,11.495153 45.746162,11.355478 45.185361,11.436684 44.72,11.72 L 44,12.1 c -0.475602,0.262114 -0.824172,0.706357 -0.96562,1.23066 C 42.892931,13.854962 42.97077,14.414244 43.25,14.88 L 47,21.42 c 0.261861,0.484045 0.711609,0.838797 1.243332,0.980716 0.531723,0.141919 1.09843,0.05846 1.566668,-0.230716 z m 16.27,28.17 0.73,-0.41 c 0.476707,-0.263777 0.825173,-0.710615 0.964847,-1.237227 C 67.914522,48.166162 67.833316,47.605361 67.55,47.14 L 55.93,27 C 55.666164,26.526092 55.221161,26.179666 54.697012,26.040144 54.172863,25.900622 53.614524,25.979971 53.15,26.26 l -0.73,0.42 c -0.473908,0.263836 -0.820334,0.708839 -0.959856,1.232988 C 51.320622,28.437137 51.399971,28.995476 51.68,29.46 L 63.3,49.6 c 0.263836,0.473908 0.708839,0.820334 1.232988,0.959856 0.524149,0.139522 1.082488,0.06017 1.547012,-0.219856 z m 61.55,104.94 -0.72,0.42 c -0.4756,0.26211 -0.82417,0.70636 -0.96562,1.23066 -0.14145,0.5243 -0.0636,1.08358 0.21562,1.54934 l 3.78,6.54 c 0.26211,0.4756 0.70636,0.82417 1.23066,0.96562 0.5243,0.14145 1.08358,0.0636 1.54934,-0.21562 l 0.73,-0.42 c 0.47671,-0.26378 0.82517,-0.71062 0.96485,-1.23723 0.13967,-0.52661 0.0585,-1.08741 -0.22485,-1.55277 L 130.42,156 c -0.26721,-0.47333 -0.71557,-0.81752 -1.24188,-0.95334 -0.52631,-0.13582 -1.08523,-0.0516 -1.54812,0.23334 z m -16.27,-28.18 -0.72,0.42 c -0.4784,0.26205 -0.82901,0.70812 -0.97062,1.23489 -0.1416,0.52676 -0.0619,1.08851 0.22062,1.55511 l 11.62,20.12 c 0.26205,0.4784 0.70812,0.82901 1.23489,0.97062 0.52676,0.1416 1.08851,0.0619 1.55511,-0.22062 l 0.72,-0.42 c 0.4784,-0.26205 0.82901,-0.70812 0.97062,-1.23489 0.1416,-0.52676 0.0619,-1.08851 -0.22062,-1.55511 l -11.62,-20.12 c -0.26205,-0.4784 -0.70812,-0.82901 -1.23489,-0.97062 -0.52676,-0.1416 -1.08851,-0.0619 -1.55511,0.22062 z M 62,16.42 62.79,16.13 c 0.512431,-0.177828 0.930658,-0.556161 1.158795,-1.04826 C 64.176933,14.589642 64.195414,14.025986 64,13.52 L 61.38,6.43 C 61.204225,5.9157463 60.826743,5.4951671 60.334409,5.2650341 59.842076,5.034901 59.277288,5.0150325 58.77,5.21 L 58,5.49 C 57.485101,5.667639 57.064925,6.0475984 56.836553,6.5420911 56.60818,7.0365838 56.591368,7.6028291 56.79,8.11 l 2.58,7.09 c 0.175362,0.519204 0.556091,0.943706 1.053226,1.174316 C 60.920361,16.604926 61.490347,16.621441 62,16.42 Z M 73.09,47 73.88,46.71 c 1.052517,-0.389406 1.59629,-1.552723 1.22,-2.61 L 67.15,22.26 C 66.982795,21.73598 66.607153,21.303954 66.111448,21.065561 65.615742,20.827168 65.043736,20.803455 64.53,21 l -0.78,0.29 c -0.514254,0.175775 -0.934833,0.553257 -1.164966,1.045591 C 62.354901,22.827924 62.335032,23.392712 62.53,23.9 l 8,21.84 c 0.168371,0.50945 0.534381,0.929883 1.015782,1.166823 C 72.027184,47.143763 72.583601,47.177337 73.09,47 Z m 42.39,114 -0.78,0.28 c -0.51425,0.17577 -0.93483,0.55326 -1.16497,1.04559 -0.23013,0.49233 -0.25,1.05712 -0.055,1.56441 l 2.58,7.1 c 0.17577,0.51425 0.55326,0.93483 1.04559,1.16497 0.49233,0.23013 1.05712,0.25 1.56441,0.055 l 0.79,-0.29 c 0.51425,-0.17577 0.93483,-0.55326 1.16497,-1.04559 0.23013,-0.49233 0.25,-1.05712 0.055,-1.56441 l -2.58,-7.1 c -0.17764,-0.5149 -0.5576,-0.93507 -1.05209,-1.16345 -0.49449,-0.22837 -1.06074,-0.24518 -1.56791,-0.0465 z m -11.12,-30.58 -0.79,0.29 c -0.51425,0.17577 -0.93483,0.55326 -1.16497,1.04559 -0.23013,0.49233 -0.25,1.05712 -0.055,1.56441 l 8,21.84 c 0.17577,0.51425 0.55326,0.93483 1.04559,1.16497 0.49233,0.23013 1.05712,0.25 1.56441,0.055 l 0.79,-0.29 c 0.51425,-0.17577 0.93483,-0.55326 1.16497,-1.04559 0.23013,-0.49233 0.25,-1.05712 0.055,-1.56441 l -8,-21.84 c -0.1819,-0.50879 -0.56192,-0.92233 -1.05356,-1.14649 -0.49163,-0.22415 -1.05305,-0.23985 -1.55644,-0.0435 z M 74.92,12.87 75.75,12.73 c 0.538534,-0.0847 1.019154,-0.385569 1.330638,-0.832974 C 77.392122,11.449622 77.507474,10.894455 77.4,10.36 L 76.09,2.93 C 76.005093,2.3935783 75.705686,1.9147517 75.260585,1.6035577 74.815483,1.2923636 74.262964,1.175564 73.73,1.28 L 72.9,1.42 C 72.363578,1.5049065 71.884752,1.8043135 71.573558,2.2494153 71.262364,2.6945171 71.145564,3.2470361 71.25,3.78 l 1.31,7.44 c 0.08491,0.536422 0.384314,1.015248 0.829415,1.326442 0.445102,0.311194 0.997621,0.427994 1.530585,0.323558 z m 5.65,32 0.83,-0.14 c 0.536422,-0.08491 1.015248,-0.384314 1.326442,-0.829415 C 83.037636,43.455483 83.154436,42.902964 83.05,42.37 L 79,19.52 C 78.915297,18.981466 78.614431,18.500846 78.167026,18.189362 77.719622,17.877878 77.164455,17.762526 76.63,17.87 l -0.82,0.14 c -0.538534,0.0847 -1.019154,0.385569 -1.330638,0.832974 C 74.167878,19.290378 74.052526,19.845545 74.16,20.38 l 4,22.88 c 0.08373,0.547102 0.390432,1.035045 0.847123,1.347717 C 79.463814,44.92039 80.029657,45.029832 80.57,44.91 Z m 22,119.66 -0.82,0.15 c -0.53825,0.0825 -1.0196,0.38088 -1.33288,0.82628 -0.31329,0.44539 -0.431421,0.99926 -0.32712,1.53372 l 1.32,7.44 c 0.0849,0.53642 0.38431,1.01525 0.82942,1.32644 0.4451,0.3112 0.99762,0.428 1.53058,0.32356 l 0.82,-0.15 c 0.53825,-0.0825 1.0196,-0.38088 1.33288,-0.82628 0.31329,-0.44539 0.43142,-0.99926 0.32712,-1.53372 l -1.32,-7.43 c -0.091,-0.5416 -0.40079,-1.02194 -0.85658,-1.32833 -0.4558,-0.30638 -1.01753,-0.41185 -1.55342,-0.29167 z m -5.65,-32 -0.82,0.15 c -0.539062,0.0711 -1.025959,0.35853 -1.34856,0.79621 C 94.428838,133.91389 94.298341,134.46406 94.39,135 l 4,22.88 c 0.08249,0.53825 0.380884,1.0196 0.826276,1.33288 0.445392,0.31329 0.999264,0.43142 1.533724,0.32712 l 0.83,-0.15 c 0.53642,-0.0849 1.01525,-0.38431 1.32644,-0.82942 0.3112,-0.4451 0.428,-0.99762 0.32356,-1.53058 l -4,-22.89 c -0.09442,-0.52908 -0.397813,-0.9979 -0.841782,-1.30077 C 97.944249,132.53635 97.397065,132.4249 96.87,132.53 Z M 88.3,11.63 h 0.84 c 1.104569,0 2,-0.895431 2,-2 V 2 c 0,-1.1045695 -0.895431,-2 -2,-2 H 88.3 c -1.104569,0 -2,0.8954305 -2,2 v 7.59 c -0.01075,0.537329 0.19521,1.056374 0.571454,1.440143 C 87.247698,11.413912 87.762563,11.630107 88.3,11.63 Z m 0,32.53 h 0.84 c 1.104569,0 2,-0.895431 2,-2 V 18.89 c 0,-1.104569 -0.895431,-2 -2,-2 H 88.3 c -1.104569,0 -2,0.895431 -2,2 v 23.24 c -0.008,0.535612 0.199126,1.052061 0.575073,1.433647 C 87.25102,43.945233 87.764328,44.16006 88.3,44.16 Z m 0.84,121.66 H 88.3 c -1.104569,0 -2,0.89543 -2,2 v 7.55 c 0,1.10457 0.895431,2 2,2 h 0.84 c 1.104569,0 2,-0.89543 2,-2 v -7.55 c 0,-1.10457 -0.895431,-2 -2,-2 z m 0,-32.54 H 88.3 c -1.104569,0 -2,0.89543 -2,2 v 23.24 c 0,1.10457 0.895431,2 2,2 h 0.84 c 1.104569,0 2,-0.89543 2,-2 v -23.2 c 0.01075,-0.53733 -0.19521,-1.05637 -0.571454,-1.44014 C 90.192302,133.49609 89.677437,133.27989 89.14,133.28 Z"
                     id="path907" />
                </g>
              </g>
            </g>
          </g>
        </g>
        <g
           transform="matrix(0.50830527,0,0,0.50830527,168.57558,81.25113)"
           id="text-logo">
          <g
             style="paint-order:stroke"
             id="g921">
            <g
               transform="translate(146.60174,-24.442094)"
               id="text-logo-path-0">
              <path
                 inkscape:connector-curvature="0"
                 style="opacity:1;fill:#64bce8;fill-rule:nonzero;stroke:none;stroke-width:0.74468082;stroke-linecap:butt;stroke-linejoin:miter;stroke-miterlimit:4;stroke-dasharray:none;stroke-dashoffset:0;paint-order:stroke"
                 transform="translate(-175.98,24.36)"
                 d="M 32.2,-8.4 H 14.07 c -1.4,0 -2.59,-1.19 -2.59,-2.59 v -34.23 c 0,-2.31 -1.89,-4.2 -4.2,-4.2 -2.31,0 -4.2,1.89 -4.2,4.2 V -5.25 C 3.08,-2.38 5.46,0 8.33,0 H 32.2 c 2.31,0 4.2,-1.89 4.2,-4.2 0,-2.31 -1.89,-4.2 -4.2,-4.2 z m 41.02,4.62 v -41.44 c 0,-2.31 -1.89,-4.2 -4.2,-4.2 -2.31,0 -4.2,1.89 -4.2,4.2 v 41.44 c 0,2.31 1.89,4.2 4.2,4.2 2.31,0 4.2,-1.89 4.2,-4.2 z m 29.61,-3.08 c 4.2,4.41 9.73,7.21 16.03,7.21 9.38,0 16.45,-6.65 16.45,-13.51 0,-9.31 -8.47,-13.58 -15.26,-16.17 -5.88,-2.24 -9.24,-3.99 -9.24,-6.51 0,-2.17 2.73,-5.11 7.84,-5.11 3.64,0 6.09,1.26 7.91,3.36 0.84,0.91 1.89,1.4 3.15,1.4 2.31,0 4.2,-1.89 4.2,-4.2 0,-1.05 -0.42,-2.1 -1.05,-2.8 -3.08,-3.43 -7.7,-6.16 -14.21,-6.16 -10.01,0 -16.24,6.79 -16.24,13.51 0,7.7 6.72,11.34 14.7,14.35 5.67,2.17 9.8,4.48 9.8,8.33 0,2.03 -3.15,5.11 -8.05,5.11 -3.78,0 -7.14,-1.61 -10.01,-4.62 -0.77,-0.84 -1.82,-1.26 -3.01,-1.26 -2.24,0 -4.2,1.89 -4.2,4.2 0,1.05 0.49,2.17 1.19,2.87 z M 168.91,0 h 19.32 c 7.84,0 14.28,-6.51 14.28,-14.35 0,-4.69 -2.24,-8.89 -5.81,-11.55 -1.19,-0.7 -1.61,-2.38 -0.98,-3.64 0.63,-1.54 0.98,-3.29 0.98,-5.11 0,-7.77 -6.58,-14.35 -14.35,-14.35 h -13.44 c -2.8,0 -5.18,2.38 -5.18,5.18 v 38.64 c 0,2.8 2.38,5.18 5.18,5.18 z m 3.22,-10.99 v -6.72 c 0,-1.4 1.19,-2.59 2.59,-2.59 h 13.51 c 3.78,0 5.88,2.1 5.88,5.95 0,3.78 -2.1,5.95 -5.88,5.95 h -13.51 c -1.4,0 -2.59,-1.19 -2.59,-2.59 z m 0,-20.3 v -6.72 c 0,-1.4 1.19,-2.59 2.59,-2.59 h 7.63 c 3.71,0 5.95,2.24 5.95,5.95 0,3.78 -2.24,5.95 -5.95,5.95 h -7.63 c -1.4,0 -2.59,-1.19 -2.59,-2.59 z m 82.32,23.24 c -9.1,0 -16.52,-7.42 -16.52,-16.52 0,-8.96 7.42,-16.38 16.52,-16.38 9.03,0 16.45,7.42 16.45,16.38 0,9.1 -7.42,16.52 -16.45,16.52 z m 0,8.4 c 13.65,0 24.85,-11.2 24.85,-24.92 0,-13.58 -11.2,-24.78 -24.85,-24.78 -13.72,0 -24.92,11.2 -24.92,24.78 0,13.72 11.2,24.92 24.92,24.92 z m 94.08,-5.53 -17.08,-40.53 c -1.96,-4.9 -8.54,-4.83 -10.5,0 l -17.08,40.53 c -0.21,0.49 -0.35,1.05 -0.35,1.68 0,2.31 1.89,4.2 4.2,4.2 1.68,0 3.22,-1.05 3.85,-2.45 l 2.1,-4.97 c 0.49,-1.26 2.17,-2.38 3.57,-2.38 h 17.92 c 1.4,0 3.08,1.12 3.57,2.38 l 2.1,4.97 c 0.7,1.47 2.17,2.45 3.85,2.45 2.24,0 4.2,-1.89 4.2,-4.2 0,-0.56 -0.14,-1.19 -0.35,-1.68 z m -29.33,-14.7 6.02,-14.21 c 0.49,-1.26 1.47,-1.26 1.96,0 l 6.02,14.21 c 0.49,1.26 -0.21,2.38 -1.61,2.38 h -10.78 c -1.4,0 -2.1,-1.12 -1.61,-2.38 z"
                 id="path918" />
            </g>
          </g>
        </g>
        <g
           transform="matrix(0.50830527,0,0,0.50830527,100.78744,76.709184)"
           id="tagline-0eec4884-cc4d-43ed-b269-d390efa11485-logo">
          <g
             style="paint-order:stroke"
             id="g932">
            <g
               id="tagline-0eec4884-cc4d-43ed-b269-d390efa11485-logo-path-0">
              <linearGradient
                 id="SVGID_651069"
                 gradientUnits="userSpaceOnUse"
                 gradientTransform="translate(2.42,-38.72)"
                 x1="-2.4062502"
                 y1="-9.6327"
                 x2="-2.4062502"
                 y2="52.367298">
                <stop
                   offset="0%"
                   style="stop-color:rgb(202,232,247);stop-opacity: 1"
                   id="stop924" />
                <stop
                   offset="100%"
                   style="stop-color:rgb(95,186,231);stop-opacity: 1"
                   id="stop926" />
              </linearGradient>
              <path
                 inkscape:connector-curvature="0"
                 style="opacity:1;fill:url(#SVGID_651069);fill-rule:nonzero;stroke:none;stroke-width:0;stroke-linecap:butt;stroke-linejoin:miter;stroke-miterlimit:4;stroke-dasharray:none;stroke-dashoffset:0;paint-order:stroke"
                 transform="translate(-14.905,19.36)"
                 d="M 25.19,-4.4 H 9.29 c -1.37,0 -2.47,-1.1 -2.47,-2.48 v -29.64 c 0,-1.21 -0.99,-2.2 -2.2,-2.2 -1.21,0 -2.2,0.99 -2.2,2.2 v 33.5 C 2.42,-1.38 3.79,0 5.45,0 h 19.74 c 1.21,0 2.2,-0.99 2.2,-2.2 0,-1.21 -0.99,-2.2 -2.2,-2.2 z"
                 id="path929" />
            </g>
          </g>
        </g>
        <g
           transform="matrix(0.50830527,0,0,0.50830527,243.09402,94.305867)"
           id="tagline-07085731-09a1-491b-ab8f-04bc0321e926-logo">
          <g
             style="paint-order:stroke"
             id="g938">
            <g
               id="tagline-07085731-09a1-491b-ab8f-04bc0321e926-logo-path-0">
              <path
                 inkscape:connector-curvature="0"
                 style="opacity:1;fill:#8ccdee;fill-rule:nonzero;stroke:none;stroke-width:0;stroke-linecap:butt;stroke-linejoin:miter;stroke-miterlimit:4;stroke-dasharray:none;stroke-dashoffset:0;paint-order:stroke"
                 transform="translate(-171.13,9.02)"
                 d="M 11.91,-2.08 H 4.39 c -0.65,0 -1.17,-0.52 -1.17,-1.17 v -3.64 c 0,-0.65 0.52,-1.17 1.17,-1.17 h 5.7 c 0.57,0 1.04,-0.47 1.04,-1.04 0,-0.57 -0.47,-1.04 -1.04,-1.04 h -5.7 c -0.65,0 -1.17,-0.52 -1.17,-1.17 v -3.64 c 0,-0.65 0.52,-1.17 1.17,-1.17 h 7.52 c 0.57,0 1.04,-0.47 1.04,-1.04 0,-0.57 -0.47,-1.04 -1.04,-1.04 H 2.57 c -0.78,0 -1.43,0.65 -1.43,1.43 V -1.43 C 1.14,-0.65 1.79,0 2.57,0 h 9.34 c 0.57,0 1.04,-0.47 1.04,-1.04 0,-0.57 -0.47,-1.04 -1.04,-1.04 z m 26.21,1.14 v -12.68 c 0,-0.65 0.28,-0.73 0.65,-0.21 l 8.89,13.23 c 0.75,1.2 2.68,0.65 2.68,-0.83 v -15.83 c 0,-0.58 -0.47,-1.04 -1.04,-1.04 -0.58,0 -1.04,0.46 -1.04,1.04 v 12.68 c 0,0.65 -0.29,0.73 -0.65,0.21 l -8.9,-13.23 c -0.75,-1.2 -2.67,-0.65 -2.67,0.83 v 15.83 c 0,0.58 0.46,1.04 1.04,1.04 0.57,0 1.04,-0.46 1.04,-1.04 z M 37,-16.46 l 0.02,0.03 z m 12.35,14.69 0.02,0.03 z m 34.27,-6.32 h 4.99 c 0.65,0 1.06,0.52 0.91,1.15 -0.89,2.99 -3.54,4.99 -6.84,4.99 -4.08,0 -7.18,-3.09 -7.18,-7.18 0,-4.03 3.1,-7.12 7.18,-7.12 1.66,0 3.09,0.52 4.32,1.46 0.2,0.15 0.41,0.23 0.65,0.23 0.54,0 1.04,-0.47 1.04,-1.04 0,-0.31 -0.19,-0.65 -0.42,-0.83 -1.59,-1.2 -3.51,-1.9 -5.59,-1.9 -5.1,0 -9.26,4.16 -9.26,9.2 0,5.1 4.16,9.26 9.26,9.26 4.94,0 8.97,-3.9 9.23,-8.81 0.03,-0.84 -0.65,-1.49 -1.46,-1.49 h -6.83 c -0.58,0 -1.04,0.47 -1.04,1.04 0,0.58 0.46,1.04 1.04,1.04 z m 42.14,6.01 h -7.51 c -0.65,0 -1.17,-0.52 -1.17,-1.17 v -3.64 c 0,-0.65 0.52,-1.17 1.17,-1.17 h 5.69 c 0.57,0 1.04,-0.47 1.04,-1.04 0,-0.57 -0.47,-1.04 -1.04,-1.04 h -5.69 c -0.65,0 -1.17,-0.52 -1.17,-1.17 v -3.64 c 0,-0.65 0.52,-1.17 1.17,-1.17 h 7.51 c 0.57,0 1.04,-0.47 1.04,-1.04 0,-0.57 -0.47,-1.04 -1.04,-1.04 h -9.33 c -0.78,0 -1.43,0.65 -1.43,1.43 v 15.34 c 0,0.78 0.65,1.43 1.43,1.43 h 9.33 c 0.57,0 1.04,-0.47 1.04,-1.04 0,-0.57 -0.47,-1.04 -1.04,-1.04 z m 26.21,1.14 v -12.68 c 0,-0.65 0.29,-0.73 0.65,-0.21 l 8.89,13.23 c 0.76,1.2 2.68,0.65 2.68,-0.83 v -15.83 c 0,-0.58 -0.47,-1.04 -1.04,-1.04 -0.57,0 -1.04,0.46 -1.04,1.04 v 12.68 c 0,0.65 -0.29,0.73 -0.65,0.21 l -8.89,-13.23 c -0.76,-1.2 -2.68,-0.65 -2.68,0.83 v 15.83 c 0,0.58 0.47,1.04 1.04,1.04 0.57,0 1.04,-0.46 1.04,-1.04 z m -1.12,-15.52 0.03,0.03 z m 12.35,14.69 0.03,0.03 z m 26.16,0.83 v -5.95 c 0,-0.65 0.52,-1.17 1.17,-1.17 h 7.8 c 0.65,0 1.17,0.52 1.17,1.17 v 5.95 c 0,0.58 0.47,1.04 1.04,1.04 0.57,0 1.04,-0.46 1.04,-1.04 v -16.32 c 0,-0.58 -0.47,-1.04 -1.04,-1.04 -0.57,0 -1.04,0.46 -1.04,1.04 v 5.95 c 0,0.65 -0.52,1.17 -1.17,1.17 h -7.8 c -0.65,0 -1.17,-0.52 -1.17,-1.17 v -5.95 c 0,-0.58 -0.47,-1.04 -1.04,-1.04 -0.57,0 -1.04,0.46 -1.04,1.04 v 16.32 c 0,0.58 0.47,1.04 1.04,1.04 0.57,0 1.04,-0.46 1.04,-1.04 z m 51.4,-0.33 -6.53,-16.02 c -0.54,-1.38 -2.41,-1.38 -2.96,0 l -6.53,16.02 c -0.05,0.1 -0.07,0.26 -0.07,0.41 0,0.55 0.44,1.04 1.04,1.04 0.39,0 0.78,-0.26 0.93,-0.62 l 0.96,-2.37 c 0.24,-0.6 0.97,-1.09 1.62,-1.09 h 7.07 c 0.65,0 1.38,0.49 1.61,1.09 l 0.96,2.37 c 0.16,0.36 0.52,0.62 0.94,0.62 0.57,0 1.04,-0.47 1.04,-1.04 0,-0.13 -0.03,-0.28 -0.08,-0.41 z m -11.41,-5.8 2.96,-7.26 c 0.23,-0.59 0.65,-0.59 0.88,0 l 2.97,7.26 c 0.23,0.6 -0.08,1.09 -0.73,1.09 h -5.36 c -0.65,0 -0.96,-0.49 -0.72,-1.09 z m 36.66,6.13 v -3.45 c 0,-0.65 0.52,-1.17 1.17,-1.17 h 1.74 c 0.65,0 1.48,0.41 1.87,0.93 l 3.48,4.53 c 0.19,0.26 0.47,0.39 0.81,0.39 0.55,0 1.04,-0.45 1.04,-1.04 0,-0.21 -0.08,-0.45 -0.21,-0.63 l -2.78,-3.61 c -0.39,-0.52 -0.23,-1.15 0.36,-1.43 1.9,-1.09 3.2,-3.15 3.2,-5.46 0,-3.43 -2.88,-6.32 -6.32,-6.32 h -5.01 c -0.78,0 -1.43,0.65 -1.43,1.43 v 15.83 c 0,0.58 0.46,1.04 1.04,1.04 0.57,0 1.04,-0.46 1.04,-1.04 z m 0,-7.87 v -6.14 c 0,-0.65 0.52,-1.17 1.17,-1.17 h 3.19 c 2.42,0 4.24,1.82 4.24,4.24 0,2.42 -1.82,4.24 -4.24,4.24 h -3.19 c -0.65,0 -1.17,-0.52 -1.17,-1.17 z m 35.85,7.87 v -16.32 c 0,-0.58 -0.47,-1.04 -1.04,-1.04 -0.57,0 -1.04,0.46 -1.04,1.04 v 16.32 c 0,0.58 0.47,1.04 1.04,1.04 0.57,0 1.04,-0.46 1.04,-1.04 z m 39.18,-0.33 -6.52,-16.02 c -0.55,-1.38 -2.42,-1.38 -2.97,0 l -6.52,16.02 c -0.06,0.1 -0.08,0.26 -0.08,0.41 0,0.55 0.44,1.04 1.04,1.04 0.39,0 0.78,-0.26 0.93,-0.62 l 0.97,-2.37 c 0.23,-0.6 0.96,-1.09 1.61,-1.09 h 7.07 c 0.65,0 1.38,0.49 1.61,1.09 l 0.96,2.37 c 0.16,0.36 0.52,0.62 0.94,0.62 0.57,0 1.04,-0.47 1.04,-1.04 0,-0.13 -0.03,-0.28 -0.08,-0.41 z m -11.41,-5.8 2.96,-7.26 c 0.24,-0.59 0.65,-0.59 0.89,0 l 2.96,7.26 c 0.23,0.6 -0.08,1.09 -0.73,1.09 h -5.35 c -0.65,0 -0.97,-0.49 -0.73,-1.09 z"
                 id="path935" />
            </g>
          </g>
        </g>
      </g>
    </g>
  </g>
</svg>
